<svg width="357.26" height="64" xmlns="http://www.w3.org/2000/svg">
 <defs>
  <style>.cls-1{fill:#1b252c}</style>
 </defs>
 <g>
  <title>Layer 1</title>
  <g id="V">
   <path id="svg_2" d="m47.57,3.02a3.88,3.88 0 0 1 3.6,-2.52a3.5,3.5 0 0 1 3.69,3.51a5.34,5.34 0 0 1 -0.36,1.53l-21.87,54.27a5.3,5.3 0 0 1 -5.13,3.69c-2.7,0 0.09,-9.54 0.09,-9.54l19.98,-50.94z" class="cls-1"/>
   <path id="svg_3" stroke-miterlimit="10" stroke="#ff0000" fill="#ff0000" d="m30.76,62.45a5.37,5.37 0 0 1 -8.29,-2.64l-21.61,-54.18a5.34,5.34 0 0 1 -0.36,-1.53a3.52,3.52 0 0 1 3.69,-3.6a3.67,3.67 0 0 1 3.51,2.52l19.89,50.94l3.17,8.49z"/>
  </g>
  <text transform="matrix(2.03625 0 0 2.14695 -92.8747 -14.7207)" stroke="#000" xml:space="preserve" text-anchor="start" font-family="sans-serif" font-size="24" id="svg_4" y="30" x="79.13" stroke-width="0" fill="#000000">ECS/Fargate</text>
 </g>
</svg>